<?xml version="1.0" standalone="no"?>
<!DOCTYPE svg PUBLIC "-//W3C//DTD SVG 20010904//EN"
 "http://www.w3.org/TR/2001/REC-SVG-20010904/DTD/svg10.dtd">
<svg version="1.0" xmlns="http://www.w3.org/2000/svg"
 width="748.000000pt" height="225.000000pt" viewBox="0 0 748.000000 225.000000"
 preserveAspectRatio="xMidYMid meet">

<g transform="translate(0.000000,225.000000) scale(0.100000,-0.100000)"
fill="#4E9DFC" stroke="none">
<path d="M530 2000 c-117 -15 -221 -88 -250 -174 -20 -62 -9 -149 26 -199 38
-54 134 -103 266 -136 54 -13 114 -34 135 -45 33 -19 38 -27 38 -56 0 -30 -5
-38 -35 -52 -79 -40 -194 -17 -259 49 l-43 46 -82 -43 c-44 -24 -85 -47 -90
-51 -12 -11 35 -81 77 -113 126 -96 355 -119 507 -50 99 44 150 118 150 216
l0 52 27 -53 c52 -106 171 -197 308 -237 94 -27 231 -23 329 10 142 48 231
124 290 246 28 59 31 74 31 160 0 86 -3 101 -32 163 -79 166 -258 270 -468
270 -252 0 -456 -151 -496 -367 -6 -32 -7 -82 -4 -110 l7 -51 -29 40 c-39 53
-103 86 -253 130 -176 51 -201 69 -186 129 7 29 45 46 102 46 56 0 106 -22
140 -63 l26 -30 89 43 c49 24 89 47 89 51 0 9 -48 68 -70 87 -86 73 -214 108
-340 92z m1031 -196 c40 -12 67 -29 105 -68 70 -70 90 -144 63 -241 -17 -60
-100 -139 -168 -159 -201 -59 -385 53 -385 234 0 181 184 293 385 234z"/>
<path d="M2010 1571 l0 -421 110 0 109 0 3 133 3 132 130 5 c115 5 136 9 181
32 28 15 64 38 81 52 39 33 82 113 89 168 15 110 -59 229 -178 284 -63 29 -64
29 -295 32 l-233 4 0 -421z m441 216 c69 -46 61 -145 -15 -181 -27 -13 -57
-16 -118 -14 l-83 3 -3 108 -3 107 94 0 c81 0 99 -3 128 -23z"/>
<path d="M2950 1982 c0 -4 59 -191 130 -415 72 -225 130 -410 130 -413 0 -2
57 -3 127 -2 l127 3 76 237 c41 130 78 239 81 242 3 4 11 -13 18 -36 7 -24 42
-134 78 -246 l65 -203 125 3 125 3 132 415 133 415 -110 3 c-61 1 -114 -1
-118 -5 -3 -4 -41 -132 -84 -283 -42 -151 -80 -278 -84 -282 -3 -4 -48 122
-98 280 l-91 287 -89 3 -90 3 -41 -128 c-22 -70 -64 -202 -93 -292 -31 -97
-55 -158 -59 -150 -4 8 -42 139 -85 292 l-79 277 -113 0 c-62 0 -113 -4 -113
-8z"/>
<path d="M4507 1978 c-3 -7 -68 -173 -145 -368 -77 -195 -149 -379 -161 -408
l-21 -53 122 3 121 3 22 60 23 60 186 3 c117 1 186 -1 186 -7 0 -6 9 -35 21
-66 l20 -55 120 0 c65 0 119 1 119 3 0 1 -74 189 -163 417 l-164 415 -140 3
c-107 2 -142 -1 -146 -10z m202 -360 c28 -79 51 -146 51 -150 0 -5 -50 -8
-111 -8 -84 0 -110 3 -107 13 10 40 104 287 109 287 4 0 30 -64 58 -142z"/>
<path d="M4990 1900 l0 -90 120 0 120 0 0 -330 0 -330 110 0 110 0 2 328 3
327 123 3 122 3 0 89 0 90 -355 0 -355 0 0 -90z"/>
<path d="M5720 1570 l0 -420 305 0 305 0 0 90 0 90 -192 2 -193 3 -3 73 -3 72
176 0 175 0 0 90 0 90 -172 2 -173 3 0 70 0 70 188 3 187 2 0 90 0 90 -300 0
-300 0 0 -420z"/>
<path d="M6370 1570 l0 -420 110 0 109 0 3 138 3 137 52 3 52 3 92 -140 91
-141 119 0 119 0 -101 152 -102 152 24 15 c13 9 43 33 66 54 127 116 106 309
-45 406 -80 51 -141 61 -379 61 l-213 0 0 -420z m466 206 c27 -27 34 -42 34
-74 0 -82 -59 -115 -195 -110 l-80 3 -3 108 -3 107 107 0 106 0 34 -34z"/>
<path d="M405 744 c-82 -30 -125 -102 -104 -177 13 -49 61 -81 169 -113 137
-41 169 -55 195 -86 34 -40 32 -79 -5 -122 -74 -84 -268 -67 -333 29 -21 31
-26 33 -42 21 -18 -13 -18 -15 -2 -39 63 -97 243 -134 364 -76 59 28 86 70 87
131 1 45 -2 53 -39 87 -32 30 -65 45 -171 79 -167 54 -202 88 -170 167 11 26
27 41 58 55 83 38 176 22 232 -40 23 -25 41 -37 51 -34 24 10 18 30 -21 68
-63 61 -179 83 -269 50z"/>
<path d="M1885 740 c-88 -29 -153 -83 -193 -160 -31 -60 -34 -71 -30 -135 6
-86 29 -135 95 -196 69 -65 145 -93 253 -93 116 0 185 28 261 103 193 194 51
483 -244 497 -63 3 -96 0 -142 -16z m263 -50 c63 -27 133 -101 150 -158 39
-128 -25 -256 -157 -314 -65 -30 -198 -30 -262 -1 -61 27 -123 84 -148 137
-27 54 -28 145 -2 201 32 70 111 134 196 156 54 14 166 4 223 -21z"/>
<path d="M5145 744 c-82 -30 -125 -102 -104 -177 13 -49 61 -81 169 -113 137
-41 169 -55 195 -86 34 -40 32 -79 -5 -122 -74 -84 -268 -67 -333 29 -21 31
-26 33 -42 21 -18 -13 -18 -15 -2 -39 63 -97 243 -134 364 -76 59 28 86 70 87
131 1 45 -2 53 -39 87 -32 30 -65 45 -171 79 -167 54 -202 88 -170 167 11 26
27 41 58 55 83 38 176 22 232 -40 23 -25 41 -37 51 -34 24 10 18 30 -21 68
-63 61 -179 83 -269 50z"/>
<path d="M810 455 l0 -295 25 0 25 0 0 295 0 295 -25 0 -25 0 0 -295z"/>
<path d="M980 455 l0 -295 25 0 25 0 0 115 0 115 118 0 c135 0 177 14 229 73
61 69 56 156 -10 223 -55 54 -93 64 -254 64 l-133 0 0 -295z m310 237 c106
-53 105 -192 -2 -248 -19 -10 -63 -14 -143 -14 l-115 0 0 140 0 140 113 0 c87
0 120 -4 147 -18z"/>
<path d="M2440 455 l0 -295 25 0 25 0 0 135 0 135 155 0 c148 0 155 1 155 20
0 19 -7 20 -155 20 l-155 0 0 120 0 120 160 0 c153 0 160 1 160 20 0 19 -7 20
-185 20 l-185 0 0 -295z"/>
<path d="M3090 455 l0 -295 25 0 25 0 0 115 0 115 118 0 c135 0 177 14 229 73
61 69 56 156 -10 223 -55 54 -93 64 -254 64 l-133 0 0 -295z m310 237 c106
-53 105 -192 -2 -248 -19 -10 -63 -14 -143 -14 l-115 0 0 140 0 140 113 0 c87
0 120 -4 147 -18z"/>
<path d="M3610 455 l0 -295 185 0 c178 0 185 1 185 20 0 19 -7 20 -160 20
l-160 0 0 275 0 275 -25 0 -25 0 0 -295z"/>
<path d="M4040 455 l0 -295 195 0 c188 0 195 1 195 20 0 19 -7 20 -170 20
l-170 0 0 120 0 120 155 0 c148 0 155 1 155 20 0 19 -7 20 -155 20 l-155 0 0
115 0 115 165 0 c158 0 165 1 165 20 0 19 -7 20 -190 20 l-190 0 0 -295z"/>
<path d="M4691 728 c-5 -13 -63 -144 -130 -292 -67 -147 -121 -270 -121 -272
0 -2 11 -4 24 -4 20 0 29 12 56 75 l33 75 174 0 174 0 34 -75 c29 -64 38 -75
59 -75 23 0 20 10 -107 295 -127 284 -133 295 -160 295 -19 0 -30 -7 -36 -22z
m111 -191 c37 -84 70 -161 74 -170 6 -16 -7 -17 -145 -17 -83 0 -151 4 -151 9
0 14 142 331 149 331 3 0 36 -69 73 -153z"/>
<path d="M5540 530 c0 -246 4 -265 63 -317 47 -41 98 -57 182 -58 132 0 222
60 244 164 6 29 11 137 11 241 l0 190 -25 0 -25 0 0 -203 c0 -214 -6 -256 -42
-295 -40 -42 -78 -56 -158 -56 -88 -1 -142 21 -177 74 -22 32 -23 41 -23 256
l0 224 -25 0 -25 0 0 -220z"/>
<path d="M6150 455 l0 -295 25 0 25 0 0 120 0 120 108 0 108 0 82 -120 c70
-101 87 -120 109 -120 30 0 34 -9 -73 147 -35 51 -64 95 -64 97 0 2 20 14 45
26 110 53 132 175 46 261 -49 50 -91 59 -263 59 l-148 0 0 -295z m351 232 c75
-50 86 -133 27 -194 -42 -44 -80 -53 -215 -53 l-113 0 0 135 0 135 134 0 c122
0 136 -2 167 -23z"/>
<path d="M6690 455 l0 -295 195 0 c188 0 195 1 195 20 0 19 -7 20 -170 20
l-170 0 0 120 0 120 155 0 c148 0 155 1 155 20 0 19 -7 20 -155 20 l-155 0 0
115 0 115 165 0 c158 0 165 1 165 20 0 19 -7 20 -190 20 l-190 0 0 -295z"/>
</g>
</svg>
